<svg width="30" height="30" viewBox="0 0 30 30" fill="none" xmlns="http://www.w3.org/2000/svg">
<path d="M22.5024 2.01544C19.0328 0.013056 14.9894 -0.519412 11.1184 0.517401C7.24563 1.55421 4.01048 4.03469 2.0075 7.5051C-2.12975 14.6672 0.334594 23.8597 7.49882 27.9939C9.85438 29.3532 12.4313 30 14.9744 30C20.1637 30 25.2181 27.3095 27.9937 22.5042C32.1291 15.3421 29.6648 6.14956 22.5024 2.01544ZM26.3696 21.5668C22.7481 27.8326 14.7024 29.9888 8.43654 26.3702C2.16691 22.7517 0.0120158 14.7103 3.63164 8.44255C5.38518 5.40711 8.21524 3.23599 11.6042 2.32854C12.7351 2.02668 13.8829 1.87669 15.0213 1.87669C17.298 1.87669 19.543 2.47103 21.5647 3.63909C27.8306 7.25762 29.9874 15.299 26.3696 21.5668Z" fill="#6866D6"/>
<path d="M21.3396 13.3061C20.8876 11.613 19.8017 10.1975 18.2826 9.32192C15.1468 7.51078 11.1277 8.58884 9.31606 11.7237C7.50625 14.8566 8.58464 18.8782 11.7185 20.6875C12.75 21.2837 13.8753 21.5668 14.9893 21.5668C17.2586 21.5668 19.4698 20.3894 20.6832 18.2858C21.5609 16.7671 21.7934 14.9991 21.3396 13.3061ZM19.0609 17.3483C18.4345 18.432 17.4236 19.2082 16.2121 19.5326C15.0006 19.8569 13.7384 19.6882 12.6562 19.0657C10.417 17.772 9.64802 14.8997 10.9402 12.6611C11.5666 11.5774 12.5775 10.8012 13.7871 10.4769C14.9968 10.1525 16.2609 10.3194 17.3449 10.9456C18.4289 11.5718 19.2034 12.5824 19.5279 13.7917C19.8523 15.001 19.6854 16.2646 19.0609 17.3483Z" fill="#6866D6"/>
<path d="M19.0611 17.3475L12.6155 28.5116L14.2398 29.4489L20.6855 18.2848L19.0611 17.3475Z" fill="#6866D6"/>
<path d="M4.49333 6.18758L2.86914 7.12524L9.31571 18.2851L10.9399 17.3475L4.49333 6.18758Z" fill="#6866D6"/>
<path d="M27.8912 8.4422H15.001V10.3171H27.8912V8.4422Z" fill="#6866D6"/>
</svg>
