<svg width="40" height="40" viewBox="0 0 40 40" fill="none" xmlns="http://www.w3.org/2000/svg">
<path d="M30.0032 2.68725C25.3771 0.017408 19.9858 -0.692549 14.8246 0.689868C9.66084 2.07228 5.3473 5.37959 2.67666 10.0068C-2.83967 19.5562 0.446125 31.813 9.99842 37.3252C13.1392 39.1376 16.575 40 19.9658 40C26.885 40 33.6241 36.4127 37.325 30.0056C42.8388 20.4562 39.553 8.19942 30.0032 2.68725ZM35.1595 28.7557C30.3308 37.1102 19.6032 39.985 11.2487 35.1603C2.88921 30.3356 0.0160211 19.6137 4.84218 11.2567C7.18024 7.20948 10.9537 4.31465 15.4722 3.10472C16.9801 2.70225 18.5105 2.50226 20.0283 2.50226C23.0641 2.50226 26.0573 3.29471 28.7529 4.85212C37.1074 9.67683 39.9831 20.3987 35.1595 28.7557Z" fill="#6866D6"/>
<path d="M28.4529 17.7414C27.8502 15.484 26.4024 13.5966 24.3769 12.4292C20.1959 10.0144 14.8371 11.4518 12.4215 15.6315C10.0084 19.8088 11.4463 25.1709 15.6248 27.5833C17.0001 28.3782 18.5005 28.7557 19.9858 28.7557C23.0115 28.7557 25.9598 27.1858 27.5776 24.381C28.7479 22.3561 29.058 19.9988 28.4529 17.7414ZM25.4146 23.1311C24.5794 24.576 23.2316 25.6109 21.6162 26.0434C20.0008 26.4759 18.3179 26.2509 16.8751 25.4209C13.8893 23.696 12.8641 19.8663 14.587 16.8814C15.4222 15.4365 16.77 14.4016 18.3829 13.9691C19.9958 13.5366 21.6812 13.7591 23.1266 14.5941C24.5719 15.429 25.6047 16.7764 26.0373 18.3888C26.4699 20.0013 26.2473 21.6862 25.4146 23.1311Z" fill="#6866D6"/>
<path d="M25.4148 23.1301L16.8206 38.0155L18.9863 39.2652L27.5805 24.3798L25.4148 23.1301Z" fill="#6866D6"/>
<path d="M5.99127 8.25009L3.82568 9.50031L12.4211 24.3801L14.5867 23.1299L5.99127 8.25009Z" fill="#6866D6"/>
<path d="M37.1882 11.2563H20.0012V13.7561H37.1882V11.2563Z" fill="#6866D6"/>
</svg>
